# 3ds Max Wavefront OBJ Exporter v0.99 - (c)2007 guruware
# File Created: 21.11.2024 22:58:00

#
# object Object007
#

v  -64.383118 -130.396881 182.574112
v  -0.000009 -130.405762 182.609360
v  -0.000009 -130.405228 217.618027
v  -64.383118 -130.412628 217.585510
v  -50.034523 40.172195 182.582367
v  -64.381981 10.691293 182.573715
v  -64.381981 10.692055 217.585144
v  -50.033733 40.173828 217.593124
v  -0.000009 66.601593 182.609375
v  -27.445965 60.897228 182.595169
v  -27.443197 60.899769 217.604950
v  -0.000009 66.601593 217.618073
v  -64.382545 -56.396080 182.573914
v  -64.382545 -56.396111 217.585327
v  -0.000009 -114.744514 220.030930
v  -48.721741 -114.744514 219.997452
v  -61.970558 -112.332069 219.998291
v  -61.970806 -128.001144 219.998383
v  -0.000009 -127.993492 220.029694
v  -48.720764 7.083027 219.997330
v  -37.253967 30.644442 220.005325
v  -48.065193 38.706242 220.005432
v  -61.969715 10.136257 219.997482
v  -19.806057 46.652527 220.017181
v  -26.301788 58.673264 220.017227
v  -0.000009 51.539040 220.030670
v  -0.000009 64.137810 220.029984
v  -0.000009 -112.332245 182.609360
v  -46.309444 -112.332245 182.574112
v  -46.309444 -112.332245 217.585510
v  -0.000009 -112.332245 217.618027
v  -46.308971 -56.363235 182.573914
v  -46.308971 -56.363235 217.585327
v  -46.308495 6.527181 182.573715
v  -35.285473 29.176750 182.582367
v  -35.285473 29.176758 217.593124
v  -46.308495 6.527185 217.585144
v  -18.629585 44.458179 182.595169
v  -18.629585 44.458179 217.604950
v  -0.000009 49.054436 217.618073
v  -0.000009 49.054436 182.609375
v  -64.382828 -112.332047 182.574020
v  -64.382828 -112.332047 217.585388
v  -48.721241 -56.367622 219.997589
v  -61.970276 -56.391731 219.997589
v  64.383095 -130.396881 182.574112
v  64.383095 -130.412628 217.585510
v  50.034508 40.172195 182.582367
v  50.033714 40.173828 217.593124
v  64.381966 10.692055 217.585144
v  64.381966 10.691293 182.573715
v  27.443178 60.899769 217.604950
v  27.445946 60.897228 182.595169
v  64.382530 -56.396111 217.585327
v  64.382530 -56.396080 182.573914
v  61.970787 -128.001144 219.998383
v  61.970539 -112.332069 219.998291
v  48.721718 -114.744514 219.997452
v  48.720745 7.083027 219.997330
v  61.969700 10.136257 219.997482
v  48.065174 38.706242 220.005432
v  37.253952 30.644440 220.005325
v  26.301771 58.673260 220.017227
v  19.806038 46.652527 220.017181
v  46.309429 -112.332245 217.585510
v  46.309429 -112.332245 182.574112
v  46.308952 -56.363235 217.585327
v  46.308952 -56.363235 182.573914
v  46.308479 6.527181 182.573715
v  46.308479 6.527185 217.585144
v  35.285454 29.176758 217.593124
v  35.285454 29.176750 182.582367
v  18.629566 44.458179 217.604950
v  18.629566 44.458179 182.595169
v  64.382812 -112.332047 217.585388
v  64.382812 -112.332047 182.574020
v  48.721226 -56.367622 219.997589
v  61.970261 -56.391731 219.997589
v  -28.352209 60.897228 182.595169
v  -28.352209 10.691297 182.593857
v  -0.000009 10.691297 182.609375
v  -28.352209 -130.401672 182.593140
v  28.352190 10.691297 182.593857
v  28.352190 60.897228 182.595169
v  28.352190 -130.401672 182.593140
# 85 vertices

vn -0.000011 -1.000000 -0.000217
vn -0.000000 -1.000000 -0.000217
vn -0.801724 0.597694 -0.000007
vn -0.974470 0.224517 -0.000002
vn -0.974460 0.224559 -0.000002
vn -0.801670 0.597767 -0.000007
vn 0.000000 1.000000 -0.000028
vn -0.456215 0.889869 -0.000019
vn -0.456045 0.889956 -0.000019
vn -1.000000 0.000007 -0.000000
vn 0.000000 0.000247 1.000000
vn -0.000333 0.000170 1.000000
vn -0.000206 0.000112 1.000000
vn -0.000505 0.000247 1.000000
vn -0.000050 -0.000126 1.000000
vn -0.000220 -0.000274 1.000000
vn -0.000438 -0.000206 1.000000
vn -0.000436 -0.000207 1.000000
vn 0.000000 -0.000117 1.000000
vn -0.000000 -0.000117 1.000000
vn 0.000000 1.000000 -0.000000
vn 0.707282 0.706932 -0.000000
vn 0.706951 0.707263 -0.000000
vn 1.000000 -0.000008 0.000000
vn 0.974471 -0.224515 0.000000
vn 0.801728 -0.597689 0.000000
vn 0.801665 -0.597774 0.000000
vn 0.974460 -0.224562 0.000000
vn 0.472605 -0.881274 0.000000
vn 0.472425 -0.881371 0.000000
vn -0.000000 -1.000000 -0.000000
vn -1.000000 0.000011 0.000000
vn 0.000019 0.000004 1.000000
vn -1.000000 0.000016 0.000000
vn 0.000011 -1.000000 -0.000217
vn 0.801724 0.597694 -0.000007
vn 0.801670 0.597767 -0.000007
vn 0.974460 0.224559 -0.000002
vn 0.974470 0.224517 -0.000002
vn 0.456045 0.889956 -0.000019
vn 0.456215 0.889869 -0.000019
vn 1.000000 0.000007 -0.000000
vn 0.000505 0.000247 1.000000
vn 0.000206 0.000112 1.000000
vn 0.000333 0.000170 1.000000
vn 0.000050 -0.000126 1.000000
vn 0.000220 -0.000274 1.000000
vn 0.000436 -0.000207 1.000000
vn 0.000438 -0.000206 1.000000
vn -0.706951 0.707263 -0.000000
vn -0.707282 0.706932 -0.000000
vn -1.000000 -0.000008 0.000000
vn -0.974471 -0.224515 0.000000
vn -0.974460 -0.224562 0.000000
vn -0.801665 -0.597774 0.000000
vn -0.801728 -0.597689 0.000000
vn -0.472425 -0.881371 0.000000
vn -0.472605 -0.881274 0.000000
vn 1.000000 0.000010 0.000000
vn -0.000019 0.000004 1.000000
vn 1.000000 0.000016 0.000000
vn 0.000000 -0.000012 1.000000
vn -0.000535 -0.000016 1.000000
vn -0.000547 -0.000010 1.000000
vn 0.000000 -0.000007 1.000000
vn -0.000552 -0.000002 1.000000
vn 0.000000 -0.000003 1.000000
vn -0.000562 -0.000024 1.000000
vn -0.000551 -0.000011 1.000000
vn -0.000544 -0.000001 1.000000
vn 0.000547 -0.000010 1.000000
vn 0.000535 -0.000016 1.000000
vn 0.000552 -0.000002 1.000000
vn 0.000551 -0.000011 1.000000
vn 0.000562 -0.000024 1.000000
vn 0.000544 -0.000001 1.000000
vn -0.000273 -0.707135 0.707078
vn 0.000000 -0.707135 0.707078
vn -0.561994 0.418713 0.713332
vn -0.680120 0.156618 0.716175
vn -0.680116 0.156639 0.716175
vn -0.561968 0.418749 0.713332
vn 0.000000 0.699540 0.714593
vn -0.316884 0.617504 0.719912
vn -0.316802 0.617546 0.719912
vn -0.000000 0.699540 0.714593
vn -0.707132 0.000008 0.707082
vn 0.407907 0.408491 0.816546
vn -0.000000 0.707252 0.706962
vn 0.408056 0.408342 0.816546
vn -0.707198 0.000016 0.707015
vn -0.707175 0.000012 0.707038
vn 0.561635 -0.419139 0.713364
vn 0.680036 -0.156818 0.716212
vn 0.680041 -0.156796 0.716212
vn 0.561665 -0.419099 0.713364
vn 0.328374 -0.613473 0.718207
vn 0.328458 -0.613428 0.718207
vn -0.000000 -0.696668 0.717394
vn 0.707091 -0.000004 0.707123
vn 0.000273 -0.707135 0.707078
vn 0.680120 0.156618 0.716175
vn 0.561994 0.418713 0.713332
vn 0.561967 0.418749 0.713332
vn 0.680116 0.156639 0.716175
vn 0.316884 0.617504 0.719912
vn 0.316802 0.617546 0.719912
vn 0.707132 0.000008 0.707082
vn 0.707175 0.000012 0.707038
vn 0.707198 0.000016 0.707015
vn -0.407906 0.408492 0.816546
vn -0.408057 0.408341 0.816546
vn -0.680036 -0.156818 0.716212
vn -0.561635 -0.419139 0.713364
vn -0.561665 -0.419099 0.713364
vn -0.680041 -0.156796 0.716212
vn -0.328374 -0.613473 0.718207
vn -0.328458 -0.613428 0.718207
vn -0.707091 -0.000004 0.707123
# 119 vertex normals

vt 0.969349 0.684851 0.000000
vt 0.883847 0.792160 0.000000
vt 0.840815 0.730289 0.000000
vt 0.924133 0.634840 0.000000
vt 0.265185 0.945800 0.000000
vt 0.208963 0.914082 0.000000
vt 0.237374 0.841032 0.000000
vt 0.287778 0.868976 0.000000
vt 0.372164 0.980782 0.000000
vt 0.320161 0.968257 0.000000
vt 0.335697 0.889202 0.000000
vt 0.380360 0.899062 0.000000
vt 0.101003 0.837688 0.000000
vt 0.132732 0.766206 0.000000
vt 0.818622 0.699370 0.000000
vt 0.888049 0.623400 0.000000
vt 0.914259 0.603516 0.000000
vt 0.915980 0.630812 0.000000
vt 0.834888 0.721920 0.000000
vt 0.252800 0.803044 0.000000
vt 0.299854 0.829110 0.000000
vt 0.290955 0.858357 0.000000
vt 0.241406 0.830923 0.000000
vt 0.344380 0.847884 0.000000
vt 0.337952 0.878173 0.000000
vt 0.384611 0.858245 0.000000
vt 0.381528 0.887675 0.000000
vt 0.775252 0.626509 0.000000
vt 0.840696 0.558971 0.000000
vt 0.880533 0.622634 0.000000
vt 0.813055 0.690832 0.000000
vt 0.096834 0.584167 0.000000
vt 0.185614 0.649042 0.000000
vt 0.154199 0.720128 0.000000
vt 0.065108 0.655219 0.000000
vt 0.285398 0.719255 0.000000
vt 0.325559 0.742019 0.000000
vt 0.303027 0.818514 0.000000
vt 0.256842 0.792895 0.000000
vt 0.362484 0.757435 0.000000
vt 0.346644 0.836884 0.000000
vt 0.385787 0.846838 0.000000
vt 0.394035 0.765518 0.000000
vt 0.012309 0.772714 0.000000
vt 0.044156 0.701581 0.000000
vt 0.149750 0.729865 0.000000
vt 0.137202 0.756442 0.000000
vt 0.986805 0.645331 0.000000
vt 0.923400 0.602825 0.000000
vt 0.060710 0.664995 0.000000
vt 0.048562 0.691800 0.000000
vt 0.790404 0.885989 0.000000
vt 0.756393 0.822133 0.000000
vt 0.481932 0.982344 0.000000
vt 0.475623 0.900711 0.000000
vt 0.529618 0.890677 0.000000
vt 0.542065 0.970620 0.000000
vt 0.425436 0.904302 0.000000
vt 0.424757 0.985787 0.000000
vt 0.644885 0.852825 0.000000
vt 0.660759 0.932798 0.000000
vt 0.752495 0.810940 0.000000
vt 0.736472 0.805236 0.000000
vt 0.741481 0.772745 0.000000
vt 0.522729 0.849032 0.000000
vt 0.527832 0.879603 0.000000
vt 0.474721 0.889418 0.000000
vt 0.472156 0.858284 0.000000
vt 0.425487 0.892909 0.000000
vt 0.425508 0.861552 0.000000
vt 0.740349 0.761632 0.000000
vt 0.710685 0.686192 0.000000
vt 0.635419 0.801571 0.000000
vt 0.618383 0.724169 0.000000
vt 0.508473 0.757478 0.000000
vt 0.520941 0.837923 0.000000
vt 0.471263 0.847011 0.000000
vt 0.465083 0.765669 0.000000
vt 0.425556 0.850182 0.000000
vt 0.426199 0.768179 0.000000
vt 0.737023 0.816838 0.000000
vt 0.758256 0.899371 0.000000
vt 0.637554 0.812297 0.000000
vt 0.642830 0.841921 0.000000
vt 0.466079 0.617804 0.000000
vt 0.437970 0.612147 0.000000
vt 0.437970 0.562358 0.000000
vt 0.466078 0.562359 0.000000
vt 0.437970 0.422439 0.000000
vt 0.466078 0.422435 0.000000
vt 0.416471 0.591595 0.000000
vt 0.402243 0.562358 0.000000
vt 0.402241 0.422444 0.000000
vt 0.494187 0.562358 0.000000
vt 0.494187 0.612147 0.000000
vt 0.494187 0.422439 0.000000
vt 0.529914 0.562358 0.000000
vt 0.515686 0.591595 0.000000
vt 0.529915 0.422444 0.000000
# 99 texture coords

o Object007
g Object007
s 9
f 1/1/1 2/2/2 3/3/2 4/4/1 
s 645
f 5/5/3 6/6/4 7/7/5 8/8/6 
s 1185
f 9/9/7 10/10/8 11/11/9 12/12/7 
s 1184
f 6/6/4 13/13/10 14/14/10 7/7/5 
s 1536
f 10/10/8 5/5/3 8/8/6 11/11/9 
s 9889
f 15/15/11 16/16/12 17/17/13 18/18/14 19/19/11 
s 337440
f 20/20/15 21/21/16 22/22/16 23/23/15 
s 57472
f 21/21/16 24/24/17 25/25/18 22/22/16 
s 37920
f 24/24/17 26/26/19 27/27/20 25/25/18 
s 649
f 28/28/21 29/29/22 30/30/23 31/31/21 
s 1184
f 29/32/22 32/33/24 33/34/24 30/35/23 
s 643
f 34/36/25 35/37/26 36/38/27 37/39/28 
s 1184
f 35/37/26 38/40/29 39/41/30 36/38/27 
s 1027
f 40/42/31 39/41/30 38/40/29 41/43/31 
f 13/13/10 42/44/32 43/45/32 14/14/10 
s 294915
f 44/46/33 20/20/15 23/23/15 45/47/33 
s 1026
f 32/33/24 34/36/25 37/39/28 33/34/24 
s 2
f 42/48/32 1/1/34 4/4/34 43/49/32 
s 1026
f 16/50/12 44/46/33 45/47/33 17/51/13 
s 1
f 46/52/35 47/53/35 3/3/2 2/2/2 
s 1049
f 48/54/36 49/55/37 50/56/38 51/57/39 
s 2432
f 9/9/7 12/12/7 52/58/40 53/59/41 
s 552
f 51/57/39 50/56/38 54/60/42 55/61/42 
s 3072
f 53/59/41 52/58/40 49/55/37 48/54/36 
s 12298
f 15/15/11 19/19/11 56/62/43 57/63/44 58/64/45 
s 427056
f 59/65/46 60/66/46 61/67/47 62/68/47 
s 100353
f 62/68/47 61/67/47 63/69/48 64/70/49 
s 6144
f 64/70/49 63/69/48 27/27/20 26/26/19 
s 1568
f 28/28/21 31/31/21 65/71/50 66/72/51 
s 1027
f 66/72/51 65/71/50 67/73/52 68/74/52 
s 4152
f 69/75/53 70/76/54 71/77/55 72/78/56 
s 2208
f 72/78/56 71/77/55 73/79/57 74/80/58 
s 2050
f 40/42/31 41/43/31 74/80/58 73/79/57 
s 530
f 55/61/42 54/60/42 75/81/59 76/82/59 
s 4456961
f 77/83/60 78/84/60 60/66/46 59/65/46 
s 4098
f 68/74/52 67/73/52 70/76/54 69/75/53 
s 2
f 76/82/59 75/81/59 47/53/61 46/52/61 
s 4194312
f 58/64/45 57/63/44 78/84/60 77/83/60 
s 1
f 9/85/62 79/86/63 80/87/64 81/88/65 
f 82/89/66 2/90/67 81/88/65 80/87/64 
f 79/86/63 5/91/68 6/92/69 80/87/64 
f 80/87/64 6/92/69 1/93/70 82/89/66 
f 9/85/62 81/88/65 83/94/71 84/95/72 
f 85/96/73 83/94/71 81/88/65 2/90/67 
f 84/95/72 83/94/71 51/97/74 48/98/75 
f 83/94/71 85/96/73 46/99/76 51/97/74 
s 80
f 4/4/77 3/3/78 19/19/78 18/18/77 
s 133144
f 8/8/79 7/7/80 23/23/81 22/22/82 
s 78
f 12/12/83 11/11/84 25/25/85 27/27/86 
s 135232
f 7/7/80 14/14/87 45/47/87 23/23/81 
s 2368
f 11/11/84 8/8/79 22/22/82 25/25/85 
s 84304
f 16/16/88 15/15/89 31/31/89 30/30/90 
s 260
f 18/18/91 17/17/92 43/49/92 4/4/91 
s 1183768
f 21/21/93 20/20/94 37/39/95 36/38/96 
s 336
f 24/24/97 21/21/93 36/38/96 39/41/98 
s 131340
f 26/26/99 24/24/97 39/41/98 40/42/99 
s 2052
f 30/35/90 33/34/100 44/46/100 16/50/88 
s 4352
f 14/14/87 43/45/92 17/51/92 45/47/87 
s 1572868
f 20/20/94 44/46/100 33/34/100 37/39/95 
s 64
f 3/3/78 47/53/101 56/62/101 19/19/78 
s 16580
f 50/56/102 49/55/103 61/67/104 60/66/105 
s 514
f 52/58/106 12/12/83 27/27/86 63/69/107 
s 2432
f 54/60/108 50/56/102 60/66/105 78/84/108 
s 25088
f 49/55/103 52/58/106 63/69/107 61/67/104 
s 1028
f 57/63/109 56/62/110 47/53/110 75/81/109 
s 229380
f 15/15/89 58/64/111 65/71/112 31/31/89 
s 1589568
f 59/65/113 62/68/114 71/77/115 70/76/116 
s 8960
f 62/68/114 64/70/117 73/79/118 71/77/115 
s 139264
f 64/70/117 26/26/99 40/42/99 73/79/118 
s 131200
f 67/73/119 65/71/112 58/64/111 77/83/119 
s 3072
f 75/81/109 54/60/108 78/84/108 57/63/109 
s 3145856
f 77/83/119 59/65/113 70/76/116 67/73/119 
# 72 polygons

